<svg width="210" height="40" version="1.1" xmlns="http://www.w3.org/2000/svg" desc="Created with imagetracer.js version 1.2.6" ><path fill="rgb(169,169,169)" stroke="rgb(169,169,169)" stroke-width="1" opacity="0.984313725490196" d="M 4.5 1 L 9 2.5 L 8 5.5 L 7.5 10 L 5 9 L 4 6.5 L 6 3.5 L 4.5 1 Z " /><path fill="rgb(169,169,169)" stroke="rgb(169,169,169)" stroke-width="1" opacity="0.984313725490196" d="M 44.5 1 L 47 1.5 L 46 2.5 L 46 18.5 L 47 23.5 L 46 24.5 L 46 35.5 L 44.5 37 Q 41 36 42 30.5 L 43 29.5 L 43 6.5 L 42 3.5 L 44.5 1 Z " /><path fill="rgb(169,169,169)" stroke="rgb(169,169,169)" stroke-width="1" opacity="0.984313725490196" d="M 0.5 2 L 1.5 4 L 0.5 2 Z " /><path fill="rgb(169,169,169)" stroke="rgb(169,169,169)" stroke-width="1" opacity="0.984313725490196" d="M 23.5 4 L 25.5 7 L 27 6.5 L 26 10 Q 23 11.3 24 7.5 L 23.5 4 Z " /><path fill="rgb(169,169,169)" stroke="rgb(169,169,169)" stroke-width="1" opacity="0.984313725490196" d="M 68 15 L 78.5 15 L 79 17 L 71.5 17 L 71 19 L 76 19 L 76 21 L 71 21 L 71 23 L 78.5 23 L 79 25 L 68 25 L 68 15 Z " /><path fill="rgb(169,169,169)" stroke="rgb(169,169,169)" stroke-width="1" opacity="0.984313725490196" d="M 85 15 L 88 15 L 88 23 L 95.5 23 L 96 25 L 85 25 L 85 15 Z " /><path fill="rgb(169,169,169)" stroke="rgb(169,169,169)" stroke-width="1" opacity="0.984313725490196" d="M 158 15 L 165 15 L 165 18.5 L 165 22.5 Q 166 26.3 163 25 L 163 17 L 158 17 L 158 15 Z " /><path fill="rgb(169,169,169)" stroke="rgb(169,169,169)" stroke-width="1" opacity="0.984313725490196" d="M 196 15 Q 199.7 13.5 199 16.5 L 198 18.5 L 199 22.5 L 198 25 L 196 24.5 L 196 15 Z " /><path fill="rgb(169,169,169)" stroke="rgb(169,169,169)" stroke-width="1" opacity="0.984313725490196" d="M 16.5 16 L 20 16.5 L 19 17.5 L 19 24 L 11.5 25 L 11.5 24 L 16 23.5 Q 13.7 22.2 15 17.5 L 16.5 16 Z " /><path fill="rgb(169,169,169)" stroke="rgb(169,169,169)" stroke-width="1" opacity="0.984313725490196" d="M 53.5 27 L 54 28.5 L 51 30.5 L 53.5 27 Z " /><path fill="rgb(169,169,169)" stroke="rgb(169,169,169)" stroke-width="1" opacity="0.984313725490196" d="M 24 30 Q 27 28.8 26 32.5 L 26.5 34 L 24 33.5 L 24 30 Z " /><path fill="rgb(169,169,169)" stroke="rgb(169,169,169)" stroke-width="1" opacity="0.984313725490196" d="M 5 31 L 9 33.5 L 8 36.5 L 6.5 39 Q 3.1 39.9 5 34.5 L 5 32.5 L 5 31 Z " /><path fill="rgb(169,169,169)" stroke="rgb(169,169,169)" stroke-width="1" opacity="0.984313725490196" d="M 50.5 32 L 49.5 34 L 50.5 32 Z " /><path fill="rgb(169,169,169)" stroke="rgb(169,169,169)" stroke-width="1" opacity="0.984313725490196" d="M 1.5 36 L 0.5 38 L 1.5 36 Z " /><path fill="rgb(169,169,169)" stroke="rgb(169,169,169)" stroke-width="1" opacity="0.984313725490196" d="M 14.5 39 L 18 39.5 L 14.5 40 L 14.5 39 Z " /><path fill="rgb(0,0,0)" stroke="rgb(0,0,0)" stroke-width="1" opacity="0" d="M 27.5 0 L 29.5 0 Q 31.8 -0.8 31 1.5 L 32 1.5 L 32 0 L 37 0 Q 37.8 3.1 35 2.5 L 35 7.5 L 31.5 12 L 28 11.5 L 32 11 Q 31.1 3.4 27.5 0 Z " /><path fill="rgb(0,0,0)" stroke="rgb(0,0,0)" stroke-width="1" opacity="0" d="M 39.5 0 L 38.5 2 L 39.5 0 Z " /><path fill="rgb(0,0,0)" stroke="rgb(0,0,0)" stroke-width="1" opacity="0" d="M 54.5 0 L 209.5 0 L 210 0.5 L 210 14.5 L 208.5 14 L 195.5 14 L 193 15 L 194.5 18 L 196 18 L 196 22 Q 192.7 20.9 194 25 L 196 25.5 L 193.5 26 Q 190.5 24 191 18.5 L 192 15 L 189.5 14 L 173.5 14 L 171.5 14 L 154.5 14 L 153.5 15 L 152.5 14 L 129 14 L 125.5 19 L 124.5 16 L 123 16.5 L 121.5 14 Q 116.1 12.1 117 15.5 L 116 15.5 L 115.5 14 L 113.5 15 L 112.5 14 L 99.5 14 L 100 15.5 L 100 30.5 L 101.5 31 Q 102.8 33.2 107.5 32 L 107.5 31 L 104 30.5 L 113 30 Q 111.8 33.7 117 32 Q 115.7 28.7 120.5 30 L 124 29 Q 122.9 26.3 125.5 27 L 129.5 29 L 132 27.5 L 129.5 27 L 128 27.5 L 131.5 26 L 133.5 27 L 135 26.5 Q 134.3 28.8 136.5 28 Q 141.9 31.1 151.5 30 L 151.5 29 L 145 28.5 L 151.5 28 L 154 28.5 L 153 30.5 L 156 28.5 L 158 23.5 Q 155.2 21.5 156 17 L 159 18.5 L 158 20.5 L 161 22 L 161.5 18 L 162 23.5 L 161 26 L 163 26.5 L 161.5 27 L 160 26.5 L 162 29.5 L 160 29.5 Q 159.2 32.1 162.5 31 L 167 32 Q 168.1 29.3 165.5 30 L 163 28.5 L 165.5 28 L 168 29 Q 169.1 26.3 166.5 27 L 166.5 26 Q 169.1 26.8 168 23.5 L 167 18 L 170 18.5 L 168 19.5 L 171.5 21 L 175 20 L 175 26.5 L 174 27.5 Q 176.8 28.6 176 32 L 182.5 31 L 183.5 32 L 197.5 32 L 199.5 32 Q 202.8 33.1 202 30.5 L 199 28.5 L 201.5 27 Q 204 30 210 29.5 L 204 30.5 L 210 31 L 210 39.5 L 209.5 40 L 49.5 40 L 56 32.5 L 56 1.5 L 54.5 1 L 54.5 0 Z M 84 9 L 84 11 L 82 12 L 87 13 L 85 14 L 65 14 L 64 25 L 67 26 L 67 29 Q 65 33 69 32 L 68 31 L 72 31 L 80 31 L 75 30 L 81 28 Q 83 29 82 27 L 82 25 L 84 26 L 85 29 L 85 30 L 96 30 L 97 29 L 97 22 Q 92 24 93 20 L 96 20 L 89 19 L 95 17 L 90 14 Q 91 11 88 12 L 88 9 L 84 9 Z M 98 15 L 96 18 L 98 17 L 98 15 Z M 130 30 L 129 32 L 136 32 L 137 31 L 140 32 L 140 30 L 134 31 L 130 30 Z M 86 31 L 86 32 L 88 32 L 86 31 Z M 144 31 L 144 32 L 152 32 L 144 31 Z " /><path fill="rgb(0,0,0)" stroke="rgb(0,0,0)" stroke-width="1" opacity="0" d="M 0.5 9 L 3 15.5 L 3 23.5 L 4.5 25 L 7 26.5 L 5.5 26 Q 3.3 25.3 4 27.5 L 4.5 31 Q 3 28.5 1.5 32 L 0 30.5 L 3 29.5 L 0 28.5 L 0 15.5 L 1 13.5 L 0.5 9 Z " /><path fill="rgb(0,0,0)" stroke="rgb(0,0,0)" stroke-width="1" opacity="0" d="M 4.5 9 L 6.5 12 L 4.5 9 Z " /><path fill="rgb(0,0,0)" stroke="rgb(0,0,0)" stroke-width="1" opacity="0" d="M 9.5 13 L 24 13.5 L 9.5 14 L 9.5 13 Z " /><path fill="rgb(0,0,0)" stroke="rgb(0,0,0)" stroke-width="1" opacity="0" d="M 135.5 15 Q 138.5 16.5 135.5 18 L 135.5 15 Z " /><path fill="rgb(0,0,0)" stroke="rgb(0,0,0)" stroke-width="1" opacity="0" d="M 66.5 16 L 67 23.5 L 66 23.5 L 66.5 16 Z " /><path fill="rgb(0,0,0)" stroke="rgb(0,0,0)" stroke-width="1" opacity="0" d="M 81.5 16 L 82 23.5 L 81 23.5 L 81.5 16 Z " /><path fill="rgb(0,0,0)" stroke="rgb(0,0,0)" stroke-width="1" opacity="0" d="M 83.5 16 L 84 23.5 L 83 23.5 L 83.5 16 Z " /><path fill="rgb(0,0,0)" stroke="rgb(0,0,0)" stroke-width="1" opacity="0" d="M 5.5 17 L 6 23.5 L 5 23.5 L 5.5 17 Z " /><path fill="rgb(0,0,0)" stroke="rgb(0,0,0)" stroke-width="1" opacity="0" d="M 180.5 18 L 185 18.5 L 180.5 19 L 180.5 18 Z " /><path fill="rgb(0,0,0)" stroke="rgb(0,0,0)" stroke-width="1" opacity="0" d="M 113.5 19 L 116 20.5 L 115.5 23 L 112 21.5 L 114 20.5 L 113.5 19 Z " /><path fill="rgb(0,0,0)" stroke="rgb(0,0,0)" stroke-width="1" opacity="0" d="M 209.5 20 L 210 21.5 L 208 22.5 L 209.5 20 Z " /><path fill="rgb(0,0,0)" stroke="rgb(0,0,0)" stroke-width="1" opacity="0" d="M 180.5 21 L 185 21.5 L 180.5 22 L 180.5 21 Z " /><path fill="rgb(0,0,0)" stroke="rgb(0,0,0)" stroke-width="1" opacity="0" d="M 154.5 24 L 153.5 26 L 154.5 24 Z " /><path fill="rgb(0,0,0)" stroke="rgb(0,0,0)" stroke-width="1" opacity="0" d="M 39.5 25 L 40 30 L 36 32.5 L 39.5 33 L 41 32.5 L 40 40 L 34.5 40 L 34 38.5 L 31.5 40 Q 27.1 41.5 28 38.5 L 31.5 36 L 32.5 38 L 33 34.5 L 32.5 33 Q 34.8 33.8 34 31.5 L 34.5 30 L 31 28.5 L 37 28 Q 35.9 25.3 38.5 26 L 39.5 25 Z " /><path fill="rgb(0,0,0)" stroke="rgb(0,0,0)" stroke-width="1" opacity="0" d="M 8.5 26 L 29 26.5 L 8.5 27 L 8.5 26 Z " /><path fill="rgb(0,0,0)" stroke="rgb(0,0,0)" stroke-width="1" opacity="0" d="M 31.5 26 L 35 26.5 L 31.5 27 L 31.5 26 Z " /><path fill="rgb(0,0,0)" stroke="rgb(0,0,0)" stroke-width="1" opacity="0" d="M 71.5 26 L 79 26.5 L 71.5 27 L 71.5 26 Z " /><path fill="rgb(0,0,0)" stroke="rgb(0,0,0)" stroke-width="1" opacity="0" d="M 207.5 26 L 210 26.5 L 207.5 27 L 207.5 26 Z " /><path fill="rgb(0,0,0)" stroke="rgb(0,0,0)" stroke-width="1" opacity="0" d="M 192.5 27 L 195 28.5 L 189.5 29 L 189.5 28 L 192.5 27 Z " /><path fill="rgb(0,0,0)" stroke="rgb(0,0,0)" stroke-width="1" opacity="0" d="M 30.5 32 L 23.5 40 L 30.5 32 Z " /><path fill="rgb(197,197,197)" stroke="rgb(197,197,197)" stroke-width="1" opacity="0.9725490196078431" d="M 8.5 1 L 12 2 L 12 9.5 L 10.5 10 Q 7.8 8.8 9 3.5 L 9.5 2 L 8.5 1 Z " /><path fill="rgb(197,197,197)" stroke="rgb(197,197,197)" stroke-width="1" opacity="0.9725490196078431" d="M 42.5 1 L 41 3.5 L 41.5 17 L 43 16.5 L 40 17.5 L 38.5 21 L 38 7.5 L 42.5 1 Z " /><path fill="rgb(197,197,197)" stroke="rgb(197,197,197)" stroke-width="1" opacity="0.9725490196078431" d="M 21.5 2 L 23 8.5 L 20 10 L 20 3.5 L 21.5 2 Z " /><path fill="rgb(197,197,197)" stroke="rgb(197,197,197)" stroke-width="1" opacity="0.9725490196078431" d="M 36.5 8 L 33.5 12 L 36.5 8 Z " /><path fill="rgb(197,197,197)" stroke="rgb(197,197,197)" stroke-width="1" opacity="0.9725490196078431" d="M 178.5 14 Q 186.7 12.9 190 15 L 190 24.5 L 188.5 25 L 184.5 26 L 182.5 25 L 178.5 26 L 176 25 L 176 15.5 L 177.5 15 L 178.5 14 Z M 181 17 Q 178 18 180 20 L 179 22 Q 180 24 182 22 L 186 23 Q 188 22 187 19 Q 186 16 181 17 Z " /><path fill="rgb(197,197,197)" stroke="rgb(197,197,197)" stroke-width="1" opacity="0.9725490196078431" d="M 8.5 15 L 16 15.5 L 8.5 16 L 8.5 15 Z " /><path fill="rgb(197,197,197)" stroke="rgb(197,197,197)" stroke-width="1" opacity="0.9725490196078431" d="M 22.5 16 L 25 16.5 L 25 23.5 L 24.5 25 L 26 25.5 L 24.5 26 L 20 24.5 L 22 23.5 Q 19.8 22.2 21 17.5 L 22.5 16 Z " /><path fill="rgb(197,197,197)" stroke="rgb(197,197,197)" stroke-width="1" opacity="0.9725490196078431" d="M 42.5 23 L 43 26.5 L 42 26.5 L 42.5 23 Z " /><path fill="rgb(197,197,197)" stroke="rgb(197,197,197)" stroke-width="1" opacity="0.9725490196078431" d="M 53.5 23 L 54 25.5 L 53 25.5 L 53.5 23 Z " /><path fill="rgb(197,197,197)" stroke="rgb(197,197,197)" stroke-width="1" opacity="0.9725490196078431" d="M 29.5 25 L 36 25.5 L 29.5 26 L 29.5 25 Z " /><path fill="rgb(197,197,197)" stroke="rgb(197,197,197)" stroke-width="1" opacity="0.9725490196078431" d="M 53.5 29 L 52.5 31 L 53.5 29 Z " /><path fill="rgb(197,197,197)" stroke="rgb(197,197,197)" stroke-width="1" opacity="0.9725490196078431" d="M 10 30 L 12 30.5 L 12 37.5 L 9.5 39 L 10 37.5 L 9 34.5 L 10 31.5 L 10 30 Z " /><path fill="rgb(197,197,197)" stroke="rgb(197,197,197)" stroke-width="1" opacity="0.9725490196078431" d="M 20 30 L 22 30.5 L 22 37.5 L 20 36.5 L 20 30 Z " /><path fill="rgb(179,179,179)" stroke="rgb(179,179,179)" stroke-width="1" opacity="0.10196078431372549" d="M 23.5 0 Q 26.1 -0.8 25 2.5 L 24 2.5 L 23.5 0 Z " /><path fill="rgb(179,179,179)" stroke="rgb(179,179,179)" stroke-width="1" opacity="0.10196078431372549" d="M 54.5 2 L 55 5.5 L 54 5.5 L 54.5 2 Z " /><path fill="rgb(179,179,179)" stroke="rgb(179,179,179)" stroke-width="1" opacity="0.10196078431372549" d="M 35.5 3 L 37 5.5 L 35 6.5 L 35.5 3 Z " /><path fill="rgb(179,179,179)" stroke="rgb(179,179,179)" stroke-width="1" opacity="0.10196078431372549" d="M 29.5 7 L 30.5 9 L 29.5 7 Z " /><path fill="rgb(179,179,179)" stroke="rgb(179,179,179)" stroke-width="1" opacity="0.10196078431372549" d="M 2.5 9 L 6 11.5 Q 6.8 13.8 4.5 13 L 3.5 10 L 2.5 9 Z " /><path fill="rgb(179,179,179)" stroke="rgb(179,179,179)" stroke-width="1" opacity="0.10196078431372549" d="M 7 11 Q 10 10 9 13 Q 6 14 7 11 Z " /><path fill="rgb(179,179,179)" stroke="rgb(179,179,179)" stroke-width="1" opacity="0.10196078431372549" d="M 31.5 13 L 30.5 15 L 31.5 13 Z " /><path fill="rgb(179,179,179)" stroke="rgb(179,179,179)" stroke-width="1" opacity="0.10196078431372549" d="M 66.5 14 L 67 16 L 65 15.5 L 66.5 14 Z " /><path fill="rgb(179,179,179)" stroke="rgb(179,179,179)" stroke-width="1" opacity="0.10196078431372549" d="M 79.5 14 L 80 18 L 76.5 19 L 71 17.5 L 79 17 L 79.5 14 Z " /><path fill="rgb(179,179,179)" stroke="rgb(179,179,179)" stroke-width="1" opacity="0.10196078431372549" d="M 83.5 14 L 85 14.5 L 83 15 L 83 24.5 L 84.5 25 L 85.5 26 L 97 26.5 L 88.5 27 L 86.5 29 L 85 26 L 82 25.5 L 82 15.5 L 83.5 14 Z " /><path fill="rgb(179,179,179)" stroke="rgb(179,179,179)" stroke-width="1" opacity="0.10196078431372549" d="M 88.5 14 L 90 17.5 L 88 18.5 L 89 15.5 L 88.5 14 Z " /><path fill="rgb(179,179,179)" stroke="rgb(179,179,179)" stroke-width="1" opacity="0.10196078431372549" d="M 115.5 14 L 116 15.5 L 113 17.5 Q 111.9 14.2 114.5 15 L 115.5 14 Z " /><path fill="rgb(179,179,179)" stroke="rgb(179,179,179)" stroke-width="1" opacity="0.10196078431372549" d="M 117.5 14 L 118 24.5 L 117 24.5 L 117.5 14 Z " /><path fill="rgb(179,179,179)" stroke="rgb(179,179,179)" stroke-width="1" opacity="0.10196078431372549" d="M 133.5 14 L 135 15.5 L 135 24.5 L 133.5 27 L 133 25.5 L 134 23.5 Q 131.7 22.2 133 17.5 L 134 15.5 L 133.5 14 Z " /><path fill="rgb(179,179,179)" stroke="rgb(179,179,179)" stroke-width="1" opacity="0.10196078431372549" d="M 137.5 14 L 139 15.5 L 139 24.5 L 138 24.5 L 137 17.5 L 137 15.5 L 137.5 14 Z " /><path fill="rgb(179,179,179)" stroke="rgb(179,179,179)" stroke-width="1" opacity="0.10196078431372549" d="M 154.5 14 Q 159.3 12.3 158 16.5 L 155.5 15 L 154.5 14 Z " /><path fill="rgb(179,179,179)" stroke="rgb(179,179,179)" stroke-width="1" opacity="0.10196078431372549" d="M 171.5 14 L 172 18 L 167 18 L 167 24.5 L 167.5 26 L 166 26.5 L 166.5 28 Q 163.8 26.8 166 25.5 Q 164.3 18.7 167.5 17 Q 172.5 18.5 171.5 14 Z " /><path fill="rgb(179,179,179)" stroke="rgb(179,179,179)" stroke-width="1" opacity="0.10196078431372549" d="M 173.5 14 L 174.5 16 L 173.5 14 Z " /><path fill="rgb(179,179,179)" stroke="rgb(179,179,179)" stroke-width="1" opacity="0.10196078431372549" d="M 190.5 16 L 191 23.5 L 190 23.5 L 190.5 16 Z " /><path fill="rgb(179,179,179)" stroke="rgb(179,179,179)" stroke-width="1" opacity="0.10196078431372549" d="M 155.5 17 L 155.5 20 Q 152.5 18.5 155.5 17 Z " /><path fill="rgb(179,179,179)" stroke="rgb(179,179,179)" stroke-width="1" opacity="0.10196078431372549" d="M 161.5 17 L 163 18.5 Q 161.3 24.8 164 26.5 L 162.5 26 L 161 25.5 Q 163.5 24 162 18.5 L 161.5 17 Z " /><path fill="rgb(179,179,179)" stroke="rgb(179,179,179)" stroke-width="1" opacity="0.10196078431372549" d="M 180.5 17 Q 185.8 15.8 187 18.5 L 185.5 18 Q 179.5 19.3 180.5 17 Z " /><path fill="rgb(179,179,179)" stroke="rgb(179,179,179)" stroke-width="1" opacity="0.10196078431372549" d="M 145.5 18 Q 147.8 17.3 147 19.5 L 147.5 21 L 145.5 22 L 143 21.5 L 145.5 18 Z " /><path fill="rgb(179,179,179)" stroke="rgb(179,179,179)" stroke-width="1" opacity="0.10196078431372549" d="M 175.5 18 L 176 21.5 L 175 21.5 L 175.5 18 Z " /><path fill="rgb(179,179,179)" stroke="rgb(179,179,179)" stroke-width="1" opacity="0.10196078431372549" d="M 201.5 18 L 204 18.5 L 201.5 19 L 201.5 18 Z " /><path fill="rgb(179,179,179)" stroke="rgb(179,179,179)" stroke-width="1" opacity="0.10196078431372549" d="M 159.5 19 Q 162.1 18.2 161 21.5 L 160 21.5 L 159.5 19 Z " /><path fill="rgb(179,179,179)" stroke="rgb(179,179,179)" stroke-width="1" opacity="0.10196078431372549" d="M 76.5 20 L 80 20.5 L 71.5 22 L 71.5 21 L 76.5 20 Z " /><path fill="rgb(179,179,179)" stroke="rgb(179,179,179)" stroke-width="1" opacity="0.10196078431372549" d="M 154.5 21 L 155 22.5 L 153 23.5 L 154.5 21 Z " /><path fill="rgb(179,179,179)" stroke="rgb(179,179,179)" stroke-width="1" opacity="0.10196078431372549" d="M 186.5 21 L 185.5 23 L 186.5 21 Z " /><path fill="rgb(179,179,179)" stroke="rgb(179,179,179)" stroke-width="1" opacity="0.10196078431372549" d="M 128.5 22 L 127 24.5 Q 127.8 26.8 125.5 26 L 128.5 22 Z " /><path fill="rgb(179,179,179)" stroke="rgb(179,179,179)" stroke-width="1" opacity="0.10196078431372549" d="M 200.5 22 L 204 24.5 L 201.5 26 L 201 24.5 L 201.5 23 L 200.5 22 Z " /><path fill="rgb(179,179,179)" stroke="rgb(179,179,179)" stroke-width="1" opacity="0.10196078431372549" d="M 66.5 25 Q 70.7 28.3 79 27.5 L 70.5 28 L 68.5 28 L 66.5 25 Z " /><path fill="rgb(179,179,179)" stroke="rgb(179,179,179)" stroke-width="1" opacity="0.10196078431372549" d="M 114.5 25 L 115.5 27 L 114.5 25 Z " /><path fill="rgb(179,179,179)" stroke="rgb(179,179,179)" stroke-width="1" opacity="0.10196078431372549" d="M 41.5 26 L 42 31.5 L 41 31.5 L 41.5 26 Z " /><path fill="rgb(179,179,179)" stroke="rgb(179,179,179)" stroke-width="1" opacity="0.10196078431372549" d="M 101.5 26 L 113 26.5 L 101.5 27 L 101.5 26 Z " /><path fill="rgb(179,179,179)" stroke="rgb(179,179,179)" stroke-width="1" opacity="0.10196078431372549" d="M 144.5 26 L 145 28 L 143 27.5 L 144.5 26 Z " /><path fill="rgb(179,179,179)" stroke="rgb(179,179,179)" stroke-width="1" opacity="0.10196078431372549" d="M 196.5 26 L 199 27 Q 200.3 31.1 197 30 L 196.5 26 Z " /><path fill="rgb(179,179,179)" stroke="rgb(179,179,179)" stroke-width="1" opacity="0.10196078431372549" d="M 204.5 26 L 205 28 L 210 27 Q 211.4 31 204.5 29 Q 201.5 27.5 204.5 26 Z " /><path fill="rgb(179,179,179)" stroke="rgb(179,179,179)" stroke-width="1" opacity="0.10196078431372549" d="M 4.5 27 L 6.5 27 L 9 27.5 L 6 28 L 5.5 30 L 4.5 27 Z " /><path fill="rgb(179,179,179)" stroke="rgb(179,179,179)" stroke-width="1" opacity="0.10196078431372549" d="M 53.5 30 Q 56.8 31.8 53 33.5 L 48.5 39 L 46 38.5 L 48 38 L 48 35.5 L 53.5 30 Z " /><path fill="rgb(179,179,179)" stroke="rgb(179,179,179)" stroke-width="1" opacity="0.10196078431372549" d="M 30.5 31 L 29.5 33 L 30.5 31 Z " /><path fill="rgb(179,179,179)" stroke="rgb(179,179,179)" stroke-width="1" opacity="0.10196078431372549" d="M 3.5 32 L 2.5 34 L 3.5 32 Z " /><path fill="rgb(122,122,122)" stroke="rgb(122,122,122)" stroke-width="1" opacity="0.2" d="M 22.5 0 L 23.5 2 L 22.5 0 Z " /><path fill="rgb(122,122,122)" stroke="rgb(122,122,122)" stroke-width="1" opacity="0.2" d="M 38 2 L 40 2.5 Q 38 7 36 3.5 L 38 3.5 L 38 2 Z " /><path fill="rgb(122,122,122)" stroke="rgb(122,122,122)" stroke-width="1" opacity="0.2" d="M 36.5 6 L 35.5 8 L 36.5 6 Z " /><path fill="rgb(122,122,122)" stroke="rgb(122,122,122)" stroke-width="1" opacity="0.2" d="M 3.5 7 L 6.5 10 L 30.5 10 L 32 9.5 L 31.5 11 L 6.5 11 L 3.5 7 Z " /><path fill="rgb(122,122,122)" stroke="rgb(122,122,122)" stroke-width="1" opacity="0.2" d="M 132.5 14 L 134 16.5 L 133 16.5 L 132.5 14 Z " /><path fill="rgb(122,122,122)" stroke="rgb(122,122,122)" stroke-width="1" opacity="0.2" d="M 140.5 14 L 139.5 16 L 140.5 14 Z " /><path fill="rgb(122,122,122)" stroke="rgb(122,122,122)" stroke-width="1" opacity="0.2" d="M 206.5 14 Q 210.3 12.8 209 16.5 L 209 18.5 Q 209.5 22.5 206.5 23 L 208 20.5 Q 209.3 14.4 206.5 15 L 206.5 14 Z " /><path fill="rgb(122,122,122)" stroke="rgb(122,122,122)" stroke-width="1" opacity="0.2" d="M 95.5 15 L 96.5 17 L 95.5 15 Z " /><path fill="rgb(122,122,122)" stroke="rgb(122,122,122)" stroke-width="1" opacity="0.2" d="M 127.5 15 L 128 17.5 L 125.5 20 L 124 17 L 127.5 15 Z " /><path fill="rgb(122,122,122)" stroke="rgb(122,122,122)" stroke-width="1" opacity="0.2" d="M 105.5 17 L 113 17.5 L 105.5 18 L 105.5 17 Z " /><path fill="rgb(122,122,122)" stroke="rgb(122,122,122)" stroke-width="1" opacity="0.2" d="M 200.5 17 L 205 17.5 L 200.5 18 L 200.5 17 Z " /><path fill="rgb(122,122,122)" stroke="rgb(122,122,122)" stroke-width="1" opacity="0.2" d="M 105.5 21 L 108 21.5 L 105.5 22 L 105.5 21 Z " /><path fill="rgb(122,122,122)" stroke="rgb(122,122,122)" stroke-width="1" opacity="0.2" d="M 121 21 L 123 21.5 L 121.5 26 L 121 21 Z " /><path fill="rgb(122,122,122)" stroke="rgb(122,122,122)" stroke-width="1" opacity="0.2" d="M 128.5 21 L 130 21 L 130 26 L 127.5 27 L 127.5 24 Q 129.8 24.8 129 22.5 L 128.5 21 Z " /><path fill="rgb(122,122,122)" stroke="rgb(122,122,122)" stroke-width="1" opacity="0.2" d="M 209.5 22 L 210 26 L 207 26 Q 208 29 205 28 Q 203.3 23.5 208.5 25 L 209.5 22 Z " /><path fill="rgb(122,122,122)" stroke="rgb(122,122,122)" stroke-width="1" opacity="0.2" d="M 115.5 23 L 114.5 25 L 115.5 23 Z " /><path fill="rgb(122,122,122)" stroke="rgb(122,122,122)" stroke-width="1" opacity="0.2" d="M 133.5 23 L 135 25.5 L 133 24.5 L 133.5 23 Z " /><path fill="rgb(122,122,122)" stroke="rgb(122,122,122)" stroke-width="1" opacity="0.2" d="M 7.5 28 L 8.5 29 L 29.5 29 Q 30.8 26.8 32 29.5 L 6.5 30 L 4.5 32 L 7.5 28 Z " /><path fill="rgb(122,122,122)" stroke="rgb(122,122,122)" stroke-width="1" opacity="0.2" d="M 71.5 30 L 75 30.5 L 71.5 31 L 71.5 30 Z " /><path fill="rgb(122,122,122)" stroke="rgb(122,122,122)" stroke-width="1" opacity="0.2" d="M 166.5 30 L 165.5 32 L 166.5 30 Z " /><path fill="rgb(122,122,122)" stroke="rgb(122,122,122)" stroke-width="1" opacity="0.2" d="M 196.5 30 L 197.5 32 L 196.5 30 Z " /><path fill="rgb(122,122,122)" stroke="rgb(122,122,122)" stroke-width="1" opacity="0.2" d="M 199.5 30 L 202 30.5 L 199.5 31 L 199.5 30 Z " /><path fill="rgb(122,122,122)" stroke="rgb(122,122,122)" stroke-width="1" opacity="0.2" d="M 143.5 31 L 152 31.5 L 143.5 32 L 143.5 31 Z " /><path fill="rgb(122,122,122)" stroke="rgb(122,122,122)" stroke-width="1" opacity="0.2" d="M 41.5 33 L 42 39.5 L 40 38.5 L 41 35.5 L 41.5 33 Z " /><path fill="rgb(122,122,122)" stroke="rgb(122,122,122)" stroke-width="1" opacity="0.2" d="M 47.5 36 L 46.5 39 L 48 39.5 L 44.5 40 L 47.5 36 Z " /><path fill="rgb(183,183,183)" stroke="rgb(183,183,183)" stroke-width="1" opacity="0.9725490196078431" d="M 21.5 1 L 24 2 L 26 5.5 L 23 4.5 L 24 10 L 22 9.5 L 22 7.5 L 21.5 1 Z " /><path fill="rgb(183,183,183)" stroke="rgb(183,183,183)" stroke-width="1" opacity="0.9725490196078431" d="M 41.5 1 L 44 1.5 L 42 3.5 L 43 6.5 Q 44.9 15.9 40.5 19 L 40 17.5 L 41 16.5 L 41 3.5 L 42 2.5 L 41.5 1 Z " /><path fill="rgb(183,183,183)" stroke="rgb(183,183,183)" stroke-width="1" opacity="0.9725490196078431" d="M 9.5 2 L 8.5 4 L 9.5 2 Z " /><path fill="rgb(183,183,183)" stroke="rgb(183,183,183)" stroke-width="1" opacity="0.9725490196078431" d="M 2.5 4 L 3.5 6 L 2.5 4 Z " /><path fill="rgb(183,183,183)" stroke="rgb(183,183,183)" stroke-width="1" opacity="0.9725490196078431" d="M 8.5 5 L 10 9.5 L 8 10 L 8.5 5 Z " /><path fill="rgb(183,183,183)" stroke="rgb(183,183,183)" stroke-width="1" opacity="0.9725490196078431" d="M 38.5 5 L 37.5 7 L 38.5 5 Z " /><path fill="rgb(183,183,183)" stroke="rgb(183,183,183)" stroke-width="1" opacity="0.9725490196078431" d="M 53.5 11 L 54 13.5 L 53 13.5 L 53.5 11 Z " /><path fill="rgb(183,183,183)" stroke="rgb(183,183,183)" stroke-width="1" opacity="0.9725490196078431" d="M 165 14 L 170 14 L 170 15.5 L 170.5 17 Q 165.1 15.1 166 18.5 L 165 18.5 L 165 14 Z " /><path fill="rgb(183,183,183)" stroke="rgb(183,183,183)" stroke-width="1" opacity="0.9725490196078431" d="M 20.5 16 L 22 16.5 Q 19.8 17.7 21 22.5 L 21.5 24 L 16.5 25 L 16.5 24 L 19 24 L 19 17.5 L 20.5 16 Z " /><path fill="rgb(183,183,183)" stroke="rgb(183,183,183)" stroke-width="1" opacity="0.9725490196078431" d="M 165.5 22 L 166 25.5 L 165 25.5 L 165.5 22 Z " /><path fill="rgb(183,183,183)" stroke="rgb(183,183,183)" stroke-width="1" opacity="0.9725490196078431" d="M 42.5 27 L 43 29.5 L 42 29.5 L 42.5 27 Z " /><path fill="rgb(183,183,183)" stroke="rgb(183,183,183)" stroke-width="1" opacity="0.9725490196078431" d="M 8.5 30 Q 10.8 29.3 10 31.5 L 10 35.5 L 8.5 39 L 7 38.5 L 9 35.5 L 7 31.5 L 8.5 30 Z " /><path fill="rgb(183,183,183)" stroke="rgb(183,183,183)" stroke-width="1" opacity="0.9725490196078431" d="M 22 30 Q 25.7 28.6 24 34.5 L 26 34.5 L 24 38 L 21.5 39 L 22 37.5 L 22 30 Z " /><path fill="rgb(225,225,225)" stroke="rgb(225,225,225)" stroke-width="1" opacity="0.9294117647058824" d="M 10.5 1 L 20.5 1 L 21 2.5 L 20 3.5 L 20 10 L 12 10 L 12 2.5 L 10.5 2 L 10.5 1 Z " /><path fill="rgb(225,225,225)" stroke="rgb(225,225,225)" stroke-width="1" opacity="0.9294117647058824" d="M 0.5 3 L 4.5 8 L 0.5 3 Z " /><path fill="rgb(225,225,225)" stroke="rgb(225,225,225)" stroke-width="1" opacity="0.9294117647058824" d="M 24.5 3 L 27.5 7 L 24.5 3 Z " /><path fill="rgb(225,225,225)" stroke="rgb(225,225,225)" stroke-width="1" opacity="0.9294117647058824" d="M 38.5 6 L 38 7.5 L 38.5 21 L 43 17.5 L 42.5 23 L 41.5 19 L 36.5 25 Q 30.3 23.3 28.5 26 L 25.5 25 L 23.5 26 L 7.5 26 L 7.5 25 L 23.5 25 L 25 23.5 L 25 16 L 16.5 16 L 16.5 15 L 30.5 15 L 37 8.5 L 38.5 6 Z " /><path fill="rgb(225,225,225)" stroke="rgb(225,225,225)" stroke-width="1" opacity="0.9294117647058824" d="M 7.5 15 L 8 23.5 L 7 23.5 L 7.5 15 Z " /><path fill="rgb(225,225,225)" stroke="rgb(225,225,225)" stroke-width="1" opacity="0.9294117647058824" d="M 53.5 16 L 54 22.5 L 53 22.5 L 53.5 16 Z " /><path fill="rgb(225,225,225)" stroke="rgb(225,225,225)" stroke-width="1" opacity="0.9294117647058824" d="M 12 30 L 20 30 L 20 36.5 L 21 39 L 11 38.5 L 12 37.5 L 12 30 Z " /><path fill="rgb(225,225,225)" stroke="rgb(225,225,225)" stroke-width="1" opacity="0.9294117647058824" d="M 3.5 33 L 0.5 37 L 3.5 33 Z " /><path fill="rgb(225,225,225)" stroke="rgb(225,225,225)" stroke-width="1" opacity="0.9294117647058824" d="M 27.5 33 L 24.5 37 L 27.5 33 Z " /><path fill="rgb(154,154,154)" stroke="rgb(154,154,154)" stroke-width="1" opacity="0.41568627450980394" d="M 35.5 8 L 34.5 10 L 35.5 8 Z " /><path fill="rgb(154,154,154)" stroke="rgb(154,154,154)" stroke-width="1" opacity="0.41568627450980394" d="M 67 14 L 79 14.5 L 68 15 L 68 25 L 79 25 L 78.5 23 L 71.5 23 L 71.5 22 Q 78.3 20.3 80 23.5 L 78.5 26 L 67 26 L 67 14 Z " /><path fill="rgb(154,154,154)" stroke="rgb(154,154,154)" stroke-width="1" opacity="0.41568627450980394" d="M 85.5 14 L 89 15.5 L 87.5 15 L 85 15.5 L 85 25 L 95.5 25 L 96 23 L 88 22.5 L 95.5 22 L 97 26 L 85.5 26 L 84 24.5 L 84 15.5 L 85.5 14 Z " /><path fill="rgb(154,154,154)" stroke="rgb(154,154,154)" stroke-width="1" opacity="0.41568627450980394" d="M 100 14 L 113 14.5 L 101 15 L 101 25 L 112.5 25 L 112.5 26 L 100 26 L 100 14 Z " /><path fill="rgb(154,154,154)" stroke="rgb(154,154,154)" stroke-width="1" opacity="0.41568627450980394" d="M 141.5 14 L 151.5 14 L 153 15.5 L 151.5 15 L 141.5 15 L 141.5 14 Z " /><path fill="rgb(154,154,154)" stroke="rgb(154,154,154)" stroke-width="1" opacity="0.41568627450980394" d="M 158.5 14 L 165 14.5 L 158.5 15 L 158.5 14 Z " /><path fill="rgb(154,154,154)" stroke="rgb(154,154,154)" stroke-width="1" opacity="0.41568627450980394" d="M 196.5 14 L 205 14.5 L 196.5 15 L 196.5 14 Z " /><path fill="rgb(154,154,154)" stroke="rgb(154,154,154)" stroke-width="1" opacity="0.41568627450980394" d="M 104.5 17 L 109 18.5 L 104 19 L 104.5 17 Z " /><path fill="rgb(154,154,154)" stroke="rgb(154,154,154)" stroke-width="1" opacity="0.41568627450980394" d="M 144.5 17 L 150 17 L 150 23 L 143.5 23 L 142 21.5 L 142.5 18 L 143 22 L 149 22 L 149 18 L 144.5 18 L 144.5 17 Z " /><path fill="rgb(154,154,154)" stroke="rgb(154,154,154)" stroke-width="1" opacity="0.41568627450980394" d="M 153.5 17 L 154 22.5 L 153 22.5 L 153.5 17 Z " /><path fill="rgb(154,154,154)" stroke="rgb(154,154,154)" stroke-width="1" opacity="0.41568627450980394" d="M 158.5 17 L 161 17.5 L 158.5 18 L 158.5 17 Z " /><path fill="rgb(154,154,154)" stroke="rgb(154,154,154)" stroke-width="1" opacity="0.41568627450980394" d="M 71.5 18 L 76 18.5 L 71.5 19 L 71.5 18 Z " /><path fill="rgb(154,154,154)" stroke="rgb(154,154,154)" stroke-width="1" opacity="0.41568627450980394" d="M 109.5 20 L 109.5 22 L 113 22.5 L 104 23 L 104.5 21 L 107.5 22 L 109.5 20 Z " /><path fill="rgb(154,154,154)" stroke="rgb(154,154,154)" stroke-width="1" opacity="0.41568627450980394" d="M 179.5 21 L 180.5 23 L 179.5 21 Z " /><path fill="rgb(154,154,154)" stroke="rgb(154,154,154)" stroke-width="1" opacity="0.41568627450980394" d="M 199.5 22 L 200 26 L 196 25.5 L 199 25 L 199.5 22 Z " /><path fill="rgb(154,154,154)" stroke="rgb(154,154,154)" stroke-width="1" opacity="0.41568627450980394" d="M 139.5 24 L 143 25.5 L 140.5 26 L 139.5 24 Z " /><path fill="rgb(154,154,154)" stroke="rgb(154,154,154)" stroke-width="1" opacity="0.41568627450980394" d="M 118.5 25 L 121 25.5 L 118.5 26 L 118.5 25 Z " /><path fill="rgb(154,154,154)" stroke="rgb(154,154,154)" stroke-width="1" opacity="0.41568627450980394" d="M 144.5 25 L 152 25.5 L 144.5 26 L 144.5 25 Z " /><path fill="rgb(250,250,250)" stroke="rgb(250,250,250)" stroke-width="1" opacity="0.011764705882352941" d="M 26.5 0 L 30.5 6 L 31.5 4 L 32 5.5 L 31 7.5 L 31.5 9 L 25 3.5 L 26.5 0 Z " /><path fill="rgb(250,250,250)" stroke="rgb(250,250,250)" stroke-width="1" opacity="0.011764705882352941" d="M 37.5 1 L 36.5 3 L 35 2.5 L 37.5 1 Z " /><path fill="rgb(250,250,250)" stroke="rgb(250,250,250)" stroke-width="1" opacity="0.011764705882352941" d="M 55.5 1 L 56 28.5 L 56 30.5 L 56 32.5 L 48.5 40 L 53 34.5 L 54 32.5 L 54 30.5 L 54 6.5 L 55.5 1 Z " /><path fill="rgb(250,250,250)" stroke="rgb(250,250,250)" stroke-width="1" opacity="0.011764705882352941" d="M 0.5 4 L 4 8.5 L 2 9.5 L 5 11.5 L 4.5 13 L 6.5 12 L 9 13 L 9.5 11 L 27.5 11 L 31.5 12 L 33 11.5 L 29 13.5 L 29.5 15 L 7 15 L 7 25.5 L 7.5 27 L 6 26.5 L 5.5 28 L 4.5 26 L 6 25.5 L 3 23.5 L 3 15.5 L 2 14.5 L 3 11.5 L 0 8.5 L 0.5 4 Z M 10 13 L 10 14 L 24 14 L 10 13 Z M 6 17 L 5 24 L 6 24 L 6 17 Z " /><path fill="rgb(250,250,250)" stroke="rgb(250,250,250)" stroke-width="1" opacity="0.011764705882352941" d="M 83.5 9 L 88 9 L 88 12 Q 90.7 10.9 90 13.5 L 95 16.5 L 92.5 17 L 91 16.5 L 90.5 18 L 88.5 14 L 85 13.5 L 87 12.5 L 84 11.5 L 84.5 10 L 83.5 9 Z " /><path fill="rgb(250,250,250)" stroke="rgb(250,250,250)" stroke-width="1" opacity="0.011764705882352941" d="M 80 14 L 84 15.5 L 81 16.5 Q 79.3 22.8 82 24.5 L 82 26.5 L 83 28.5 L 81.5 28 L 74.5 30 L 68.5 30 L 66.5 27 L 68.5 28 L 71 26.5 L 70.5 28 L 78.5 28 L 79 26.5 L 80 22 L 78 21.5 L 80 20.5 L 76 19.5 L 80 18 L 80 14 Z " /><path fill="rgb(250,250,250)" stroke="rgb(250,250,250)" stroke-width="1" opacity="0.011764705882352941" d="M 134.5 14 Q 137.8 12.9 137 15.5 L 137 17.5 Q 136.4 22.9 138 25 L 140 25.5 L 139.5 27 L 145 28 L 145.5 26 L 153.5 26 L 155 22.5 L 154 20.5 L 155.5 20 L 157 23.5 L 156 26 L 154 26.5 L 154.5 28 L 152.5 29 Q 151 26.5 145.5 28 L 145.5 29 L 151 29.5 L 144.5 30 L 141.5 29 Q 136.1 30.9 137 27.5 L 137.5 26 L 135.5 27 L 135 18.5 Q 138.8 16.8 135.5 15 L 134.5 14 Z " /><path fill="rgb(250,250,250)" stroke="rgb(250,250,250)" stroke-width="1" opacity="0.011764705882352941" d="M 174.5 14 L 176 14 L 176 18 L 173 18.5 L 175 19.5 L 168.5 20 L 168.5 19 L 172 18 Q 170.5 14.3 173.5 15 L 174.5 14 Z " /><path fill="rgb(250,250,250)" stroke="rgb(250,250,250)" stroke-width="1" opacity="0.011764705882352941" d="M 97.5 15 L 98 16.5 L 96 17.5 L 97.5 15 Z " /><path fill="rgb(250,250,250)" stroke="rgb(250,250,250)" stroke-width="1" opacity="0.011764705882352941" d="M 155.5 15 L 156.5 17 L 154 16.5 L 155.5 15 Z " /><path fill="rgb(250,250,250)" stroke="rgb(250,250,250)" stroke-width="1" opacity="0.011764705882352941" d="M 190.5 15 Q 193.1 14.2 192 17.5 L 191 17.5 L 190.5 15 Z " /><path fill="rgb(250,250,250)" stroke="rgb(250,250,250)" stroke-width="1" opacity="0.011764705882352941" d="M 194 15 Q 197.3 13.9 196 18 Q 192.7 19.1 194 15 Z " /><path fill="rgb(250,250,250)" stroke="rgb(250,250,250)" stroke-width="1" opacity="0.011764705882352941" d="M 65.5 16 L 67 24.5 L 65 25.5 L 64 23.5 L 65.5 16 Z " /><path fill="rgb(250,250,250)" stroke="rgb(250,250,250)" stroke-width="1" opacity="0.011764705882352941" d="M 115.5 16 L 117 16.5 L 117 24.5 Q 118.7 28.8 120.5 26 L 123.5 24 L 126.5 26 Q 127.7 23.7 129 26.5 L 126.5 30 L 125 29.5 L 127 28.5 L 124 27 Q 125.3 30 121.5 29 L 117 30 Q 118.2 33.7 113 32 L 112.5 30 L 104.5 30 L 104.5 31 L 108 31.5 L 102.5 32 L 100 31 L 100.5 26 L 101.5 27 L 112.5 27 L 114.5 27 L 116 26.5 L 116 24.5 L 115.5 18 L 112 19.5 L 114 20.5 L 111.5 22 L 110 18 Q 114.3 19 115.5 16 Z " /><path fill="rgb(250,250,250)" stroke="rgb(250,250,250)" stroke-width="1" opacity="0.011764705882352941" d="M 185.5 18 L 186 21.5 L 184.5 21 Q 178.7 22.7 180 19 L 185.5 18 Z " /><path fill="rgb(250,250,250)" stroke="rgb(250,250,250)" stroke-width="1" opacity="0.011764705882352941" d="M 41.5 19 L 42 25.5 Q 39.7 26.8 41 31.5 L 39.5 33 L 36 32.5 L 36.5 30 L 38.5 30 Q 41.9 30.9 40 25.5 L 38.5 26 L 37 26 L 36.5 28 L 30.5 28 L 29.5 29 L 8.5 29 L 9.5 27 L 26.5 27 L 27.5 28 L 30.5 26 L 34.5 27 L 37 26 L 41.5 19 Z " /><path fill="rgb(250,250,250)" stroke="rgb(250,250,250)" stroke-width="1" opacity="0.011764705882352941" d="M 89 19 Q 92.7 17.5 92 20.5 L 92.5 22 Q 90.8 18.9 89 20.5 L 89 19 Z " /><path fill="rgb(250,250,250)" stroke="rgb(250,250,250)" stroke-width="1" opacity="0.011764705882352941" d="M 93.5 19 L 96 19.5 L 93.5 20 L 93.5 19 Z " /><path fill="rgb(250,250,250)" stroke="rgb(250,250,250)" stroke-width="1" opacity="0.011764705882352941" d="M 175.5 22 L 176 26 L 189.5 26 L 190 24.5 L 191.5 22 L 193.5 26 Q 196.8 24.9 196 27.5 L 196 29.5 L 197 31.5 L 183.5 32 L 178.5 31 L 176 32 Q 176.8 28.6 174 27.5 L 175.5 22 Z M 193 27 L 190 28 L 190 29 L 195 29 L 193 27 Z " /><path fill="rgb(250,250,250)" stroke="rgb(250,250,250)" stroke-width="1" opacity="0.011764705882352941" d="M 194 22 Q 197.3 20.9 196 25 Q 192.7 26.1 194 22 Z " /><path fill="rgb(250,250,250)" stroke="rgb(250,250,250)" stroke-width="1" opacity="0.011764705882352941" d="M 202.5 25 L 205 25.5 Q 203.2 29.8 201.5 27 L 199.5 28 L 197 26.5 L 202.5 25 Z " /><path fill="rgb(250,250,250)" stroke="rgb(250,250,250)" stroke-width="1" opacity="0.011764705882352941" d="M 160.5 26 L 163.5 27 L 164.5 26 Q 166.3 29.1 168 27.5 Q 166.8 30.3 165.5 28 L 163 28.5 L 165 29.5 L 163.5 30 L 160 28 L 160.5 26 Z " /><path fill="rgb(250,250,250)" stroke="rgb(250,250,250)" stroke-width="1" opacity="0.011764705882352941" d="M 88.5 27 L 96.5 27 L 97 28.5 L 95.5 30 L 84.5 30 L 85.5 28 Q 87 30.5 88.5 27 Z " /><path fill="rgb(250,250,250)" stroke="rgb(250,250,250)" stroke-width="1" opacity="0.011764705882352941" d="M 3.5 28 Q 6.3 29.3 4 30.5 L 0.5 36 L 0 31.5 L 4 29.5 L 3.5 28 Z " /><path fill="rgb(250,250,250)" stroke="rgb(250,250,250)" stroke-width="1" opacity="0.011764705882352941" d="M 32.5 30 L 35 30.5 L 34 33 L 32 33.5 L 34 40 L 32 39.5 L 32 37.5 Q 32.8 35.3 30.5 36 L 26.5 40 L 24.5 40 L 26 37.5 L 25 36.5 L 28.5 33 Q 29.8 35.3 31 32.5 L 32.5 30 Z " /><path fill="rgb(250,250,250)" stroke="rgb(250,250,250)" stroke-width="1" opacity="0.011764705882352941" d="M 81.5 30 L 81 31.5 L 80.5 33 L 80 31.5 L 81.5 30 Z " /><path fill="rgb(250,250,250)" stroke="rgb(250,250,250)" stroke-width="1" opacity="0.011764705882352941" d="M 85.5 31 L 88 31.5 L 85.5 32 L 85.5 31 Z " /><path fill="rgb(250,250,250)" stroke="rgb(250,250,250)" stroke-width="1" opacity="0.011764705882352941" d="M 199.5 31 L 202 31.5 L 199.5 32 L 199.5 31 Z " /><path fill="rgb(133,133,133)" stroke="rgb(133,133,133)" stroke-width="1" opacity="0.9686274509803922" d="M 0 0 L 21.5 0 L 23 1.5 L 21.5 1 L 4 1.5 L 6 4.5 L 5.5 7 L 0 0 Z " /><path fill="rgb(133,133,133)" stroke="rgb(133,133,133)" stroke-width="1" opacity="0.9686274509803922" d="M 41.5 0 L 54 0 L 54 8.5 L 53 9.5 L 53 28.5 L 43.5 40 Q 40.1 40.9 42 35.5 L 43 35.5 L 43.5 38 L 46 35.5 L 47 19.5 L 46 18.5 L 46 2.5 L 46.5 1 Q 41.7 -0.3 40.5 2 L 41.5 0 Z " /><path fill="rgb(133,133,133)" stroke="rgb(133,133,133)" stroke-width="1" opacity="0.9686274509803922" d="M 39.5 3 L 38.5 5 L 39.5 3 Z " /><path fill="rgb(133,133,133)" stroke="rgb(133,133,133)" stroke-width="1" opacity="0.9686274509803922" d="M 24.5 5 L 31 9.5 L 26 10 L 24.5 5 Z " /><path fill="rgb(133,133,133)" stroke="rgb(133,133,133)" stroke-width="1" opacity="0.9686274509803922" d="M 119.5 14 L 122 15 L 125.5 20 L 131.5 14 L 133 15.5 L 133 24.5 L 131.5 25 L 130 25.5 L 129.5 20 L 127 24 Q 123.2 25.5 124 22.5 L 121 20.5 Q 122.9 26.8 118 25 L 118 15.5 L 119.5 14 Z " /><path fill="rgb(133,133,133)" stroke="rgb(133,133,133)" stroke-width="1" opacity="0.9686274509803922" d="M 205.5 14 L 208 15 Q 209.5 20.8 206 22.5 L 209 24.5 L 204.5 25 Q 203.2 21.3 199 22 L 198 17.5 L 199 15 L 205.5 14 Z M 199 17 L 199 19 L 205 19 L 205 17 L 199 17 Z " /><path fill="rgb(133,133,133)" stroke="rgb(133,133,133)" stroke-width="1" opacity="0.9686274509803922" d="M 101 15 L 113 15.5 L 111.5 17 L 104 17 L 104 19 L 109 19 L 109 21 L 104 21 L 104 23 L 111.5 23 L 112 25 L 101 25 L 101 15 Z " /><path fill="rgb(133,133,133)" stroke="rgb(133,133,133)" stroke-width="1" opacity="0.9686274509803922" d="M 140.5 15 L 151.5 15 L 152 16.5 Q 154.2 17.7 153 22.5 L 152 25 L 144.5 25 L 143.5 26 L 139 23.5 Q 137.3 16.8 140.5 15 Z M 144 17 Q 141 18 142 22 L 144 23 L 150 23 L 150 17 L 144 17 Z " /><path fill="rgb(133,133,133)" stroke="rgb(133,133,133)" stroke-width="1" opacity="0.9686274509803922" d="M 8 16 L 16 16.5 Q 13.7 17.7 15 22.5 L 15.5 24 L 8 25 L 8 16 Z " /><path fill="rgb(133,133,133)" stroke="rgb(133,133,133)" stroke-width="1" opacity="0.9686274509803922" d="M 26 30 L 31 30.5 L 24.5 35 L 26 32.5 L 26 30 Z " /><path fill="rgb(133,133,133)" stroke="rgb(133,133,133)" stroke-width="1" opacity="0.9686274509803922" d="M 5.5 33 L 5 34.5 L 5 39 L 13.5 39 L 13.5 40 L 0.5 40 L 0 38.5 L 5.5 33 Z " /><path fill="rgb(133,133,133)" stroke="rgb(133,133,133)" stroke-width="1" opacity="0.9686274509803922" d="M 22.5 38 L 21.5 40 L 18 39.5 L 22.5 38 Z " /><path fill="rgb(50,50,50)" stroke="rgb(50,50,50)" stroke-width="1" opacity="0.0196078431372549" d="M 157.5 23 L 158 24.5 L 156 25.5 L 157.5 23 Z " /><path fill="rgb(50,50,50)" stroke="rgb(50,50,50)" stroke-width="1" opacity="0.0196078431372549" d="M 113.5 25 L 114.5 27 L 113.5 25 Z " /><path fill="rgb(50,50,50)" stroke="rgb(50,50,50)" stroke-width="1" opacity="0.0196078431372549" d="M 155.5 27 L 155 28.5 L 153.5 31 L 153 29.5 L 155.5 27 Z " /><path fill="rgb(50,50,50)" stroke="rgb(50,50,50)" stroke-width="1" opacity="0.0196078431372549" d="M 162.5 29 L 166 30.5 L 162 31 L 162.5 29 Z " /><path fill="rgb(50,50,50)" stroke="rgb(50,50,50)" stroke-width="1" opacity="0.0196078431372549" d="M 196.5 29 L 198.5 30 L 200 29.5 L 197.5 31 L 196.5 29 Z " /><path fill="rgb(50,50,50)" stroke="rgb(50,50,50)" stroke-width="1" opacity="0.0196078431372549" d="M 75.5 30 L 78 30.5 L 75.5 31 L 75.5 30 Z " /><path fill="rgb(50,50,50)" stroke="rgb(50,50,50)" stroke-width="1" opacity="0.0196078431372549" d="M 134.5 30 L 137 30.5 L 134.5 31 L 134.5 30 Z " /><path fill="rgb(50,50,50)" stroke="rgb(50,50,50)" stroke-width="1" opacity="0.0196078431372549" d="M 204.5 30 L 207 30.5 L 204.5 31 L 204.5 30 Z " /></svg>